<?xml version="1.0" encoding="UTF-8"?>
<!DOCTYPE svg PUBLIC "-//W3C//DTD SVG 1.1//EN" "http://www.w3.org/Graphics/SVG/1.1/DTD/svg11.dtd">
<svg xmlns="http://www.w3.org/2000/svg" version="1.1" width="534px" height="467px" style="shape-rendering:geometricPrecision; text-rendering:geometricPrecision; image-rendering:optimizeQuality; fill-rule:evenodd; clip-rule:evenodd" xmlns:xlink="http://www.w3.org/1999/xlink">
<g><path style="opacity:1" fill="#1c9e37" d="M 66.5,181.5 C 73.9059,181.152 81.2392,181.652 88.5,183C 89.9797,184.299 90.6464,185.966 90.5,188C 90.1825,191.123 89.1825,193.956 87.5,196.5C 78.9525,194.373 70.2859,194.04 61.5,195.5C 58.3513,200.968 55.3513,206.468 52.5,212C 52.8333,212.5 53.1667,213 53.5,213.5C 55.0709,212.691 56.7376,212.357 58.5,212.5C 64.491,212.034 70.491,211.701 76.5,211.5C 78.8896,211.685 79.8896,213.018 79.5,215.5C 79.4441,218.111 78.4441,220.278 76.5,222C 66.5,222.333 56.5,222.667 46.5,223C 44.5494,224.734 43.5494,226.901 43.5,229.5C 40.1917,232.45 38.1917,236.116 37.5,240.5C 35.461,241.911 34.461,243.911 34.5,246.5C 33.0688,247.903 31.9022,249.569 31,251.5C 30.51,252.793 30.3433,254.127 30.5,255.5C 27.0658,259.506 23.7325,263.672 20.5,268C 18.1152,268.556 15.7819,268.39 13.5,267.5C 13.4207,264.729 13.9207,262.063 15,259.5C 19.0711,252.029 22.5711,244.362 25.5,236.5C 28.5402,233.086 30.5402,229.086 31.5,224.5C 29.8333,224.5 28.1667,224.5 26.5,224.5C 25.1667,223.167 25.1667,221.833 26.5,220.5C 28.5,219.167 30.1667,217.5 31.5,215.5C 33.7925,215.756 35.9592,215.423 38,214.5C 40.6659,210.167 42.4992,205.5 43.5,200.5C 44.9063,200.027 45.573,199.027 45.5,197.5C 47.8532,195.14 49.8532,192.473 51.5,189.5C 51.5,188.833 51.8333,188.5 52.5,188.5C 57.0303,185.776 61.6969,183.442 66.5,181.5 Z"/></g>
<g><path style="opacity:0.18" fill="#bee6c8" d="M 66.5,181.5 C 61.6969,183.442 57.0303,185.776 52.5,188.5C 55.9728,184.097 60.6395,181.763 66.5,181.5 Z"/></g>
<g><path style="opacity:1" fill="#1b9e37" d="M 363.5,188.5 C 364.569,191.408 364.736,194.408 364,197.5C 362.91,200.939 361.744,204.273 360.5,207.5C 358.182,209.185 357.182,211.519 357.5,214.5C 355.461,215.911 354.461,217.911 354.5,220.5C 352.919,222.674 351.419,225.007 350,227.5C 349.187,229.436 348.687,231.436 348.5,233.5C 346.375,236.581 344.542,239.914 343,243.5C 342.338,245.813 341.838,248.146 341.5,250.5C 339.656,252.279 338.99,254.612 339.5,257.5C 341.099,257.768 342.432,257.434 343.5,256.5C 343.833,256.5 344.167,256.5 344.5,256.5C 346.38,256.771 347.713,256.104 348.5,254.5C 350.027,254.573 351.027,253.906 351.5,252.5C 353.027,252.573 354.027,251.906 354.5,250.5C 356.975,249.313 357.975,247.313 357.5,244.5C 359.539,243.089 360.539,241.089 360.5,238.5C 363.268,235.229 366.268,232.062 369.5,229C 372.527,228.455 374.86,226.955 376.5,224.5C 377.833,224.5 379.167,224.5 380.5,224.5C 387.125,223.538 393.125,224.871 398.5,228.5C 399.716,234.145 399.716,239.812 398.5,245.5C 400.415,245.784 402.081,245.451 403.5,244.5C 405.674,244.25 407.341,243.25 408.5,241.5C 409.906,241.027 410.573,240.027 410.5,238.5C 411.496,238.586 412.329,238.252 413,237.5C 414.919,233.746 417.419,230.412 420.5,227.5C 426.873,224.878 433.539,223.878 440.5,224.5C 443.987,225.745 446.987,227.745 449.5,230.5C 449.5,234.167 449.5,237.833 449.5,241.5C 449.5,242.5 449.5,243.5 449.5,244.5C 450.833,244.5 452.167,244.5 453.5,244.5C 455.674,244.25 457.341,243.25 458.5,241.5C 464.535,239.281 467.035,234.947 466,228.5C 469.914,226.16 474.08,225.827 478.5,227.5C 479.67,229.279 481.336,230.279 483.5,230.5C 488.762,227.526 494.428,226.192 500.5,226.5C 501.117,226.611 501.617,226.944 502,227.5C 502.817,230.964 502.483,234.298 501,237.5C 495.82,243.345 490.654,249.178 485.5,255C 485.833,255.5 486.167,256 486.5,256.5C 493.84,253.835 500.506,250.168 506.5,245.5C 506.842,244.662 507.508,244.328 508.5,244.5C 510.674,244.25 512.341,243.25 513.5,241.5C 514.833,240.167 516.167,240.167 517.5,241.5C 517.5,243.5 517.5,245.5 517.5,247.5C 515.833,248.5 514.5,249.833 513.5,251.5C 504.87,255.481 496.537,259.981 488.5,265C 475.911,267.377 472.244,262.543 477.5,250.5C 478.906,250.027 479.573,249.027 479.5,247.5C 483.787,244.203 486.454,239.869 487.5,234.5C 483.144,234.927 479.311,236.594 476,239.5C 472.091,245.321 469.258,251.654 467.5,258.5C 467.737,259.791 467.404,260.791 466.5,261.5C 464.167,263.167 462.167,265.167 460.5,267.5C 458.473,267.662 456.473,267.495 454.5,267C 453.941,266.275 453.608,265.442 453.5,264.5C 455.559,260.877 457.226,257.044 458.5,253C 458.167,252.5 457.833,252 457.5,251.5C 453.744,254.537 449.577,255.204 445,253.5C 443.97,253.836 443.47,254.503 443.5,255.5C 441.738,256.262 440.738,257.596 440.5,259.5C 435.801,262.516 430.801,265.016 425.5,267C 418.523,268.774 412.523,267.274 407.5,262.5C 406.701,259.57 406.368,256.57 406.5,253.5C 402.662,254.692 398.828,254.692 395,253.5C 392.899,255.094 391.399,257.094 390.5,259.5C 385.801,262.516 380.801,265.016 375.5,267C 371.514,267.499 367.514,267.666 363.5,267.5C 363.027,266.094 362.027,265.427 360.5,265.5C 359.833,264.167 358.833,263.167 357.5,262.5C 357.5,261.5 357.5,260.5 357.5,259.5C 352.768,261.696 348.102,264.196 343.5,267C 340.5,267.667 337.5,267.667 334.5,267C 333.437,265.812 332.103,265.312 330.5,265.5C 330.087,263.11 329.421,260.777 328.5,258.5C 322.183,264.994 314.517,267.828 305.5,267C 303.638,265.634 301.972,264.134 300.5,262.5C 299.964,255.573 300.964,248.906 303.5,242.5C 307.522,236.146 312.855,231.146 319.5,227.5C 321.423,227.205 323.09,226.372 324.5,225C 329.926,224.741 335.26,224.574 340.5,224.5C 342.74,220.693 344.407,216.693 345.5,212.5C 346.674,211.486 347.34,210.153 347.5,208.5C 348.038,206.883 348.371,205.216 348.5,203.5C 350.241,201.605 351.241,199.272 351.5,196.5C 353.087,193.572 355.087,190.906 357.5,188.5C 359.5,187.167 361.5,187.167 363.5,188.5 Z M 330.5,233.5 C 331.978,233.238 333.311,233.571 334.5,234.5C 333.754,235.736 333.421,237.07 333.5,238.5C 331.461,239.911 330.461,241.911 330.5,244.5C 328.738,245.262 327.738,246.596 327.5,248.5C 324.808,250.862 322.141,253.196 319.5,255.5C 317.5,255.833 315.5,256.167 313.5,256.5C 314.18,251.127 315.847,246.127 318.5,241.5C 322.251,238.408 326.251,235.741 330.5,233.5 Z M 381.5,253.5 C 379.566,254.11 377.899,255.11 376.5,256.5C 373.924,256.532 371.591,255.865 369.5,254.5C 369.5,251.5 369.5,248.5 369.5,245.5C 371.456,242.461 373.79,239.628 376.5,237C 384.918,233.747 388.085,236.58 386,245.5C 384.741,248.356 383.241,251.023 381.5,253.5 Z M 434.5,249.5 C 432.738,250.262 431.738,251.596 431.5,253.5C 429.973,253.427 428.973,254.094 428.5,255.5C 420.819,257.57 417.986,254.57 420,246.5C 422.124,239.019 426.957,235.519 434.5,236C 435.98,237.299 436.646,238.966 436.5,241C 436.136,243.921 435.469,246.754 434.5,249.5 Z"/></g>
<g><path style="opacity:0.314" fill="#c1ebcd" d="M 357.5,188.5 C 355.087,190.906 353.087,193.572 351.5,196.5C 351.642,192.367 353.642,189.701 357.5,188.5 Z"/></g>
<g><path style="opacity:0.349" fill="#bfe5c9" d="M 51.5,189.5 C 49.8532,192.473 47.8532,195.14 45.5,197.5C 46.4101,193.935 48.4101,191.268 51.5,189.5 Z"/></g>
<g><path style="opacity:0.004" fill="#d1eed8" d="M 66.5,181.5 C 74.0546,180.13 81.7213,180.297 89.5,182C 93.3228,186.295 93.4895,190.795 90,195.5C 89.3292,196.252 88.4959,196.586 87.5,196.5C 89.1825,193.956 90.1825,191.123 90.5,188C 90.6464,185.966 89.9797,184.299 88.5,183C 81.2392,181.652 73.9059,181.152 66.5,181.5 Z"/></g>
<g><path style="opacity:0.18" fill="#ccebd5" d="M 45.5,197.5 C 45.573,199.027 44.9063,200.027 43.5,200.5C 43.427,198.973 44.0937,197.973 45.5,197.5 Z"/></g>
<g><path style="opacity:0.671" fill="#b2e1bd" d="M 351.5,196.5 C 351.241,199.272 350.241,201.605 348.5,203.5C 348.552,200.654 349.552,198.32 351.5,196.5 Z"/></g>
<g><path style="opacity:0.133" fill="#c5e8cf" d="M 363.5,188.5 C 365.735,189.286 366.735,190.952 366.5,193.5C 365.798,198.822 363.798,203.489 360.5,207.5C 361.744,204.273 362.91,200.939 364,197.5C 364.736,194.408 364.569,191.408 363.5,188.5 Z"/></g>
<g><path style="opacity:0.741" fill="#abdcb7" d="M 43.5,200.5 C 42.4992,205.5 40.6659,210.167 38,214.5C 35.9592,215.423 33.7925,215.756 31.5,215.5C 33.0419,214.837 34.7086,214.17 36.5,213.5C 38.6076,208.946 40.9409,204.612 43.5,200.5 Z"/></g>
<g><path style="opacity:0.145" fill="#cfedd7" d="M 348.5,203.5 C 348.371,205.216 348.038,206.883 347.5,208.5C 347.167,208.5 346.833,208.5 346.5,208.5C 346.402,206.447 347.069,204.78 348.5,203.5 Z"/></g>
<g><path style="opacity:0.247" fill="#d1edd8" d="M 87.5,196.5 C 85.2279,197.764 82.8945,197.598 80.5,196C 74.8333,195.333 69.1667,195.333 63.5,196C 60.5,201 57.5,206 54.5,211C 57.1194,210.917 59.786,210.75 62.5,210.5C 61.1667,211.167 59.8333,211.833 58.5,212.5C 56.7376,212.357 55.0709,212.691 53.5,213.5C 53.1667,213 52.8333,212.5 52.5,212C 55.3513,206.468 58.3513,200.968 61.5,195.5C 70.2859,194.04 78.9525,194.373 87.5,196.5 Z"/></g>
<g><path style="opacity:0.184" fill="#c7ead1" d="M 360.5,207.5 C 360.293,210.241 359.293,212.574 357.5,214.5C 357.182,211.519 358.182,209.185 360.5,207.5 Z"/></g>
<g><path style="opacity:0.976" fill="#59b26d" d="M 62.5,210.5 C 62.8333,210.5 63.1667,210.5 63.5,210.5C 68.0323,210.182 72.3656,210.515 76.5,211.5C 70.491,211.701 64.491,212.034 58.5,212.5C 59.8333,211.833 61.1667,211.167 62.5,210.5 Z"/></g>
<g><path style="opacity:0.808" fill="#7bcd8d" d="M 346.5,208.5 C 346.833,208.5 347.167,208.5 347.5,208.5C 347.34,210.153 346.674,211.486 345.5,212.5C 345.5,212.167 345.5,211.833 345.5,211.5C 345.263,210.209 345.596,209.209 346.5,208.5 Z"/></g>
<g><path style="opacity:0.41" fill="#f7ccc9" d="M 289.5,213.5 C 285.154,213.334 280.821,213.501 276.5,214C 275.263,214.232 274.263,214.732 273.5,215.5C 267.163,216.836 261.496,219.503 256.5,223.5C 257.475,221.807 258.808,220.307 260.5,219C 267.742,215.197 275.408,212.697 283.5,211.5C 285.717,211.878 287.717,212.545 289.5,213.5 Z"/></g>
<g><path style="opacity:0.924" fill="#ea6a61" d="M 289.5,213.5 C 289.5,213.833 289.5,214.167 289.5,214.5C 284.13,214.392 278.797,214.725 273.5,215.5C 274.263,214.732 275.263,214.232 276.5,214C 280.821,213.501 285.154,213.334 289.5,213.5 Z"/></g>
<g><path style="opacity:0.125" fill="#f6c3be" d="M 289.5,213.5 C 295.809,215.579 298.809,220.079 298.5,227C 298.492,228.707 298.158,230.207 297.5,231.5C 297.167,231.5 296.833,231.5 296.5,231.5C 296.79,227.064 296.29,222.73 295,218.5C 293.5,216.531 291.667,215.198 289.5,214.5C 289.5,214.167 289.5,213.833 289.5,213.5 Z"/></g>
<g><path style="opacity:1" fill="#f2473a" d="M 289.5,214.5 C 291.667,215.198 293.5,216.531 295,218.5C 296.29,222.73 296.79,227.064 296.5,231.5C 295.962,233.117 295.629,234.784 295.5,236.5C 290.123,243.532 283.457,249.199 275.5,253.5C 274.614,254.325 274.281,255.325 274.5,256.5C 279.473,257.164 284.473,257.497 289.5,257.5C 292.167,257.5 294.833,257.5 297.5,257.5C 297.623,262.886 294.956,266.053 289.5,267C 286.167,267.667 282.833,267.667 279.5,267C 276.28,265.648 272.947,264.814 269.5,264.5C 268.594,263.035 267.261,262.035 265.5,261.5C 262.469,263.016 259.469,264.516 256.5,266C 254.455,266.49 252.455,266.323 250.5,265.5C 250.34,263.801 250.506,262.134 251,260.5C 254.291,259.025 257.125,257.025 259.5,254.5C 262.267,254.13 264.267,252.796 265.5,250.5C 275.524,245.976 282.191,238.476 285.5,228C 285.613,226.301 284.947,225.134 283.5,224.5C 282.848,223.275 281.681,222.608 280,222.5C 278.833,222.667 277.667,222.833 276.5,223C 271.833,225.333 267.167,227.667 262.5,230C 260.455,230.49 258.455,230.323 256.5,229.5C 256.5,227.5 256.5,225.5 256.5,223.5C 261.496,219.503 267.163,216.836 273.5,215.5C 278.797,214.725 284.13,214.392 289.5,214.5 Z"/></g>
<g><path style="opacity:0.353" fill="#c9ebd2" d="M 31.5,215.5 C 30.1667,217.5 28.5,219.167 26.5,220.5C 27.1667,217.833 28.8333,216.167 31.5,215.5 Z"/></g>
<g><path style="opacity:0.008" fill="#d6efdd" d="M 357.5,214.5 C 357.539,217.089 356.539,219.089 354.5,220.5C 354.461,217.911 355.461,215.911 357.5,214.5 Z"/></g>
<g><path style="opacity:0.184" fill="#d4eddb" d="M 96.5,223.5 C 93.2869,223.19 90.2869,223.523 87.5,224.5C 86.0413,224.433 84.7079,224.766 83.5,225.5C 82.8333,225.5 82.1667,225.5 81.5,225.5C 82.842,224.207 84.5087,223.374 86.5,223C 90.0267,222.192 93.3601,222.359 96.5,223.5 Z"/></g>
<g><path style="opacity:0.224" fill="#d3ecda" d="M 390.5,223.5 C 386.958,223.187 383.625,223.521 380.5,224.5C 379.167,224.5 377.833,224.5 376.5,224.5C 379.017,223.027 381.85,222.36 385,222.5C 387.033,222.506 388.866,222.839 390.5,223.5 Z"/></g>
<g><path style="opacity:0.537" fill="#a4d6b0" d="M 212.5,223.5 C 212.5,223.833 212.5,224.167 212.5,224.5C 207.638,224.118 202.972,224.784 198.5,226.5C 199.975,224.59 201.975,223.424 204.5,223C 207.367,222.199 210.034,222.366 212.5,223.5 Z"/></g>
<g><path style="opacity:0.153" fill="#cbecd4" d="M 63.5,210.5 C 68.7037,209.194 74.037,209.194 79.5,210.5C 82.2873,215.086 81.6206,219.252 77.5,223C 75.9656,223.923 74.299,224.423 72.5,224.5C 64.5221,223.43 56.5221,223.263 48.5,224C 46.7092,225.771 45.0425,227.604 43.5,229.5C 43.5494,226.901 44.5494,224.734 46.5,223C 56.5,222.667 66.5,222.333 76.5,222C 78.4441,220.278 79.4441,218.111 79.5,215.5C 79.8896,213.018 78.8896,211.685 76.5,211.5C 72.3656,210.515 68.0323,210.182 63.5,210.5 Z"/></g>
<g><path style="opacity:1" fill="#1a9e37" d="M 87.5,224.5 C 93.0055,223.898 98.1722,224.898 103,227.5C 106.047,226.249 109.047,226.249 112,227.5C 111.795,234.464 110.129,241.13 107,247.5C 106.502,250.482 106.335,253.482 106.5,256.5C 111.244,256.96 115.244,255.46 118.5,252C 121.667,248.833 124.833,245.667 128,242.5C 128.483,241.552 128.649,240.552 128.5,239.5C 129.947,238.866 130.613,237.699 130.5,236C 129.668,233.522 129.501,231.022 130,228.5C 130.383,227.944 130.883,227.611 131.5,227.5C 134.43,226.701 137.43,226.368 140.5,226.5C 143.324,226.989 144.657,228.656 144.5,231.5C 148.613,230.607 152.28,228.94 155.5,226.5C 157.488,226.173 159.488,225.84 161.5,225.5C 163.693,225.719 165.693,226.385 167.5,227.5C 167.5,230.167 167.5,232.833 167.5,235.5C 165.016,237.8 163.016,240.467 161.5,243.5C 157.528,246.47 153.862,249.804 150.5,253.5C 149.614,254.325 149.281,255.325 149.5,256.5C 152.216,256.614 154.216,255.614 155.5,253.5C 158.089,253.539 160.089,252.539 161.5,250.5C 163.97,250.346 165.97,249.346 167.5,247.5C 169.819,247.008 171.819,246.008 173.5,244.5C 175.5,244.5 176.5,243.5 176.5,241.5C 179.573,236.884 182.573,232.051 185.5,227C 190.269,225.595 192.602,227.428 192.5,232.5C 194.854,230.812 196.854,228.812 198.5,226.5C 202.972,224.784 207.638,224.118 212.5,224.5C 215.076,225.569 217.243,227.235 219,229.5C 222.189,227.135 225.689,225.468 229.5,224.5C 241.286,222.779 245.119,227.446 241,238.5C 237.051,243.433 233.551,248.6 230.5,254C 230.585,255.107 230.919,256.107 231.5,257C 233.387,257.78 235.054,257.613 236.5,256.5C 239.034,256.741 240.7,255.741 241.5,253.5C 244.198,253.155 246.198,251.822 247.5,249.5C 249.19,249.144 250.19,248.144 250.5,246.5C 252.588,245.061 254.921,244.394 257.5,244.5C 257.66,246.199 257.494,247.866 257,249.5C 251.231,255.446 245.065,260.779 238.5,265.5C 233.304,267.087 227.97,267.754 222.5,267.5C 218.998,263.927 217.664,259.594 218.5,254.5C 219.674,253.486 220.34,252.153 220.5,250.5C 223.136,247.69 225.636,244.69 228,241.5C 229.202,239.323 229.702,236.989 229.5,234.5C 225.869,234.16 222.536,234.994 219.5,237C 212.66,242.87 207.993,250.037 205.5,258.5C 203.896,259.287 203.229,260.62 203.5,262.5C 201.912,263.641 200.579,265.141 199.5,267C 195.167,268.489 192.833,266.989 192.5,262.5C 193.175,259.822 193.842,257.156 194.5,254.5C 196.822,253.198 198.155,251.198 198.5,248.5C 199.906,248.027 200.573,247.027 200.5,245.5C 202.262,244.738 203.262,243.404 203.5,241.5C 205.821,239.91 206.821,237.577 206.5,234.5C 202.537,234.089 198.87,234.922 195.5,237C 194.748,237.671 194.414,238.504 194.5,239.5C 192.5,239.5 191.5,240.5 191.5,242.5C 189.554,243.035 188.554,244.368 188.5,246.5C 183.951,250.929 180.951,256.262 179.5,262.5C 177.75,263.659 176.75,265.326 176.5,267.5C 174.208,267.756 172.041,267.423 170,266.5C 169.785,262.715 169.619,259.048 169.5,255.5C 163.833,258.667 158.167,261.833 152.5,265C 141.984,267.649 137.984,263.815 140.5,253.5C 143.996,249.181 146.996,244.515 149.5,239.5C 151.104,238.713 151.771,237.38 151.5,235.5C 146.126,234.937 141.959,236.937 139,241.5C 135.806,248.083 132.806,254.75 130,261.5C 127.346,265.744 123.513,267.744 118.5,267.5C 118.808,265.076 118.474,262.743 117.5,260.5C 114.171,262.634 111.171,264.968 108.5,267.5C 105.5,267.5 102.5,267.5 99.5,267.5C 98.8333,266.167 97.8333,265.167 96.5,264.5C 96.0192,261.478 95.3525,258.478 94.5,255.5C 92.3886,256.605 91.0553,258.271 90.5,260.5C 87.865,261.473 85.865,263.14 84.5,265.5C 82.8212,265.285 81.8212,265.952 81.5,267.5C 77.8333,267.5 74.1667,267.5 70.5,267.5C 69.7377,265.738 68.4044,264.738 66.5,264.5C 66.2503,262.326 65.2503,260.659 63.5,259.5C 62.3139,257.126 62.3139,254.792 63.5,252.5C 66.0508,242.91 71.0508,234.744 78.5,228C 80.4913,227.626 82.158,226.793 83.5,225.5C 84.7079,224.766 86.0413,224.433 87.5,224.5 Z M 86.5,235.5 C 90.3872,234.945 93.3872,236.279 95.5,239.5C 94.8728,240.417 94.5394,241.417 94.5,242.5C 93.6618,242.842 93.3284,243.508 93.5,244.5C 91.7376,245.262 90.7376,246.596 90.5,248.5C 87.4744,251.195 84.4744,253.862 81.5,256.5C 78.1504,256.349 76.4837,254.515 76.5,251C 76.9417,246.292 78.6084,242.125 81.5,238.5C 83.4341,237.89 85.1007,236.89 86.5,235.5 Z"/></g>
<g><path style="opacity:0.173" fill="#d1eed9" d="M 167.5,227.5 C 165.693,226.385 163.693,225.719 161.5,225.5C 159.488,225.84 157.488,226.173 155.5,226.5C 157.117,225.028 159.117,224.361 161.5,224.5C 164.393,224.069 166.393,225.069 167.5,227.5 Z"/></g>
<g><path style="opacity:0.22" fill="#c6e9cf" d="M 237.5,223.5 C 234.615,223.194 231.948,223.527 229.5,224.5C 225.689,225.468 222.189,227.135 219,229.5C 217.243,227.235 215.076,225.569 212.5,224.5C 212.5,224.167 212.5,223.833 212.5,223.5C 215.642,223.799 217.809,225.466 219,228.5C 224.349,223.208 230.516,221.542 237.5,223.5 Z"/></g>
<g><path style="opacity:0.576" fill="#abdab6" d="M 440.5,223.5 C 440.5,223.833 440.5,224.167 440.5,224.5C 433.539,223.878 426.873,224.878 420.5,227.5C 422.89,224.972 425.89,223.472 429.5,223C 433.358,222.19 437.024,222.357 440.5,223.5 Z"/></g>
<g><path style="opacity:0.731" fill="#6bbf7f" d="M 132.5,225.5 C 135.385,225.194 138.052,225.527 140.5,226.5C 137.43,226.368 134.43,226.701 131.5,227.5C 131.833,226.833 132.167,226.167 132.5,225.5 Z"/></g>
<g><path style="opacity:0.133" fill="#c2e6cb" d="M 354.5,220.5 C 353.273,225.282 351.273,229.615 348.5,233.5C 348.687,231.436 349.187,229.436 350,227.5C 351.419,225.007 352.919,222.674 354.5,220.5 Z"/></g>
<g><path style="opacity:0.412" fill="#a3d7af" d="M 380.5,224.5 C 383.625,223.521 386.958,223.187 390.5,223.5C 394.209,223.679 396.876,225.346 398.5,228.5C 393.125,224.871 387.125,223.538 380.5,224.5 Z"/></g>
<g><path style="opacity:0.337" fill="#c0e7ca" d="M 440.5,224.5 C 440.5,224.167 440.5,223.833 440.5,223.5C 444.975,223.979 447.975,226.312 449.5,230.5C 446.987,227.745 443.987,225.745 440.5,224.5 Z"/></g>
<g><path style="opacity:0.743" fill="#a2d9af" d="M 478.5,226.5 C 478.5,226.833 478.5,227.167 478.5,227.5C 474.08,225.827 469.914,226.16 466,228.5C 467.035,234.947 464.535,239.281 458.5,241.5C 460.077,239.416 461.91,237.416 464,235.5C 462.386,228.596 465.219,224.93 472.5,224.5C 474.883,224.361 476.883,225.028 478.5,226.5 Z"/></g>
<g><path style="opacity:0.467" fill="#afdfbb" d="M 132.5,225.5 C 138.181,223.349 143.014,224.682 147,229.5C 149.492,227.503 152.325,226.503 155.5,226.5C 152.28,228.94 148.613,230.607 144.5,231.5C 144.657,228.656 143.324,226.989 140.5,226.5C 138.052,225.527 135.385,225.194 132.5,225.5 Z"/></g>
<g><path style="opacity:0.412" fill="#eccdcb" d="M 256.5,223.5 C 256.5,225.5 256.5,227.5 256.5,229.5C 253.833,227.5 253.833,225.5 256.5,223.5 Z"/></g>
<g><path style="opacity:0.784" fill="#a3d7af" d="M 345.5,211.5 C 345.5,211.833 345.5,212.167 345.5,212.5C 344.407,216.693 342.74,220.693 340.5,224.5C 335.26,224.574 329.926,224.741 324.5,225C 323.09,226.372 321.423,227.205 319.5,227.5C 319.5,227.167 319.5,226.833 319.5,226.5C 325.585,222.261 332.085,221.594 339,224.5C 341.097,219.984 343.263,215.65 345.5,211.5 Z"/></g>
<g><path style="opacity:0.047" fill="#d0efd9" d="M 478.5,227.5 C 478.5,227.167 478.5,226.833 478.5,226.5C 480.354,227.241 482.021,228.241 483.5,229.5C 483.5,229.833 483.5,230.167 483.5,230.5C 481.336,230.279 479.67,229.279 478.5,227.5 Z"/></g>
<g><path style="opacity:0.729" fill="#8bcd9a" d="M 493.5,225.5 C 496.059,225.198 498.393,225.532 500.5,226.5C 494.428,226.192 488.762,227.526 483.5,230.5C 483.5,230.167 483.5,229.833 483.5,229.5C 486.37,227.206 489.703,225.872 493.5,225.5 Z"/></g>
<g><path style="opacity:0.031" fill="#b0debb" d="M 198.5,226.5 C 196.854,228.812 194.854,230.812 192.5,232.5C 192.602,227.428 190.269,225.595 185.5,227C 182.573,232.051 179.573,236.884 176.5,241.5C 178.086,235.255 181.086,229.755 185.5,225C 189.684,223.835 192.517,225.335 194,229.5C 195.129,227.859 196.629,226.859 198.5,226.5 Z"/></g>
<g><path style="opacity:0.012" fill="#f8cac6" d="M 283.5,224.5 C 281.143,224.337 278.81,224.503 276.5,225C 271.283,227.709 265.95,230.209 260.5,232.5C 258.583,232.246 257.249,231.246 256.5,229.5C 258.455,230.323 260.455,230.49 262.5,230C 267.167,227.667 271.833,225.333 276.5,223C 277.667,222.833 278.833,222.667 280,222.5C 281.681,222.608 282.848,223.275 283.5,224.5 Z"/></g>
<g><path style="opacity:0.38" fill="#c1e9cc" d="M 132.5,225.5 C 132.167,226.167 131.833,226.833 131.5,227.5C 130.883,227.611 130.383,227.944 130,228.5C 129.501,231.022 129.668,233.522 130.5,236C 130.613,237.699 129.947,238.866 128.5,239.5C 128.834,235.579 129.001,231.579 129,227.5C 129.816,226.177 130.983,225.511 132.5,225.5 Z"/></g>
<g><path style="opacity:0.275" fill="#d9eadf" d="M 167.5,227.5 C 169.972,230.119 169.972,232.786 167.5,235.5C 167.5,232.833 167.5,230.167 167.5,227.5 Z"/></g>
<g><path style="opacity:0.173" fill="#c7ead0" d="M 43.5,229.5 C 42.2437,233.687 40.2437,237.354 37.5,240.5C 38.1917,236.116 40.1917,232.45 43.5,229.5 Z"/></g>
<g><path style="opacity:0.439" fill="#b4e0be" d="M 376.5,224.5 C 374.86,226.955 372.527,228.455 369.5,229C 366.268,232.062 363.268,235.229 360.5,238.5C 363.665,231.334 368.998,226.667 376.5,224.5 Z"/></g>
<g><path style="opacity:0.553" fill="#a7dab3" d="M 420.5,227.5 C 417.419,230.412 414.919,233.746 413,237.5C 412.329,238.252 411.496,238.586 410.5,238.5C 412.442,233.559 415.775,229.892 420.5,227.5 Z"/></g>
<g><path style="opacity:0.018" fill="#bde7c6" d="M 333.5,238.5 C 333.421,237.07 333.754,235.736 334.5,234.5C 333.311,233.571 331.978,233.238 330.5,233.5C 330.97,232.307 331.97,231.64 333.5,231.5C 334.5,231.833 335.5,232.167 336.5,232.5C 336.086,234.919 335.086,236.919 333.5,238.5 Z"/></g>
<g><path style="opacity:0.224" fill="#cdecd6" d="M 26.5,224.5 C 28.1667,224.5 29.8333,224.5 31.5,224.5C 30.5402,229.086 28.5402,233.086 25.5,236.5C 26.5467,233.404 27.88,230.404 29.5,227.5C 28.6602,226.265 27.6602,225.265 26.5,224.5 Z"/></g>
<g><path style="opacity:0.653" fill="#5bb871" d="M 378.5,234.5 C 379.622,233.844 380.955,233.511 382.5,233.5C 384.333,233.585 385.666,234.252 386.5,235.5C 383.946,234.612 381.279,234.279 378.5,234.5 Z"/></g>
<g><path style="opacity:0.42" fill="#b6e2c1" d="M 87.5,224.5 C 90.2869,223.523 93.2869,223.19 96.5,223.5C 99.0991,223.549 101.266,224.549 103,226.5C 110.31,222.401 113.977,224.401 114,232.5C 110.74,239.872 108.907,247.539 108.5,255.5C 116.609,252.067 123.275,246.734 128.5,239.5C 128.649,240.552 128.483,241.552 128,242.5C 124.833,245.667 121.667,248.833 118.5,252C 115.244,255.46 111.244,256.96 106.5,256.5C 106.335,253.482 106.502,250.482 107,247.5C 110.129,241.13 111.795,234.464 112,227.5C 109.047,226.249 106.047,226.249 103,227.5C 98.1722,224.898 93.0055,223.898 87.5,224.5 Z"/></g>
<g><path style="opacity:0.008" fill="#f8dad8" d="M 296.5,231.5 C 296.833,231.5 297.167,231.5 297.5,231.5C 297.88,233.698 297.213,235.365 295.5,236.5C 295.629,234.784 295.962,233.117 296.5,231.5 Z"/></g>
<g><path style="opacity:0.267" fill="#c8ead2" d="M 319.5,226.5 C 319.5,226.833 319.5,227.167 319.5,227.5C 312.855,231.146 307.522,236.146 303.5,242.5C 306.5,234.833 311.833,229.5 319.5,226.5 Z"/></g>
<g><path style="opacity:0.358" fill="#cde0d3" d="M 449.5,230.5 C 452.065,234.199 452.065,237.865 449.5,241.5C 449.5,237.833 449.5,234.167 449.5,230.5 Z"/></g>
<g><path style="opacity:0.082" fill="#d2efda" d="M 86.5,235.5 C 91.2121,233.32 94.5454,234.653 96.5,239.5C 96.5466,241.038 95.8799,242.038 94.5,242.5C 94.5394,241.417 94.8728,240.417 95.5,239.5C 93.3872,236.279 90.3872,234.945 86.5,235.5 Z"/></g>
<g><path style="opacity:0.243" fill="#b7e3c2" d="M 203.5,241.5 C 203.877,239.742 204.544,238.075 205.5,236.5C 204.667,236.167 203.833,235.833 203,235.5C 199.827,236.187 196.994,237.521 194.5,239.5C 194.414,238.504 194.748,237.671 195.5,237C 198.87,234.922 202.537,234.089 206.5,234.5C 206.821,237.577 205.821,239.91 203.5,241.5 Z"/></g>
<g><path style="opacity:0.227" fill="#c4e7cd" d="M 86.5,235.5 C 85.1007,236.89 83.4341,237.89 81.5,238.5C 82.0483,235.916 83.715,234.916 86.5,235.5 Z"/></g>
<g><path style="opacity:0.302" fill="#bee5c8" d="M 330.5,233.5 C 326.251,235.741 322.251,238.408 318.5,241.5C 320.741,236.368 324.741,233.701 330.5,233.5 Z"/></g>
<g><path style="opacity:0.016" fill="#bde6c8" d="M 479.5,247.5 C 481.048,243.939 483.048,240.606 485.5,237.5C 485,237.167 484.5,236.833 484,236.5C 481.929,237.787 479.762,238.953 477.5,240C 474.251,246.34 470.917,252.507 467.5,258.5C 469.258,251.654 472.091,245.321 476,239.5C 479.311,236.594 483.144,234.927 487.5,234.5C 486.454,239.869 483.787,244.203 479.5,247.5 Z"/></g>
<g><path style="opacity:0.063" fill="#b4e1bf" d="M 229.5,224.5 C 231.948,223.527 234.615,223.194 237.5,223.5C 242.126,224.303 244.459,227.136 244.5,232C 243.928,235.384 242.761,238.551 241,241.5C 236.583,245.674 233.75,250.674 232.5,256.5C 233.833,256.5 235.167,256.5 236.5,256.5C 235.054,257.613 233.387,257.78 231.5,257C 230.919,256.107 230.585,255.107 230.5,254C 233.551,248.6 237.051,243.433 241,238.5C 245.119,227.446 241.286,222.779 229.5,224.5 Z"/></g>
<g><path style="opacity:0.38" fill="#acddb8" d="M 81.5,225.5 C 82.1667,225.5 82.8333,225.5 83.5,225.5C 82.158,226.793 80.4913,227.626 78.5,228C 71.0508,234.744 66.0508,242.91 63.5,252.5C 64.7773,240.26 70.7773,231.26 81.5,225.5 Z"/></g>
<g><path style="opacity:0.031" fill="#cfecd7" d="M 348.5,233.5 C 346.961,239.566 344.628,245.233 341.5,250.5C 341.838,248.146 342.338,245.813 343,243.5C 344.542,239.914 346.375,236.581 348.5,233.5 Z"/></g>
<g><path style="opacity:0.092" fill="#c8ecd1" d="M 378.5,234.5 C 381.279,234.279 383.946,234.612 386.5,235.5C 388.358,241.482 387.525,247.149 384,252.5C 383.329,253.252 382.496,253.586 381.5,253.5C 383.241,251.023 384.741,248.356 386,245.5C 388.085,236.58 384.918,233.747 376.5,237C 373.79,239.628 371.456,242.461 369.5,245.5C 370.638,240.358 373.638,236.691 378.5,234.5 Z"/></g>
<g><path style="opacity:0.133" fill="#bde7c7" d="M 167.5,235.5 C 166.647,239.02 164.647,241.687 161.5,243.5C 163.016,240.467 165.016,237.8 167.5,235.5 Z"/></g>
<g><path style="opacity:0.173" fill="#b5e2c1" d="M 194.5,239.5 C 193.833,240.833 192.833,241.833 191.5,242.5C 191.5,240.5 192.5,239.5 194.5,239.5 Z"/></g>
<g><path style="opacity:0.302" fill="#c1e6cb" d="M 410.5,238.5 C 410.573,240.027 409.906,241.027 408.5,241.5C 408.427,239.973 409.094,238.973 410.5,238.5 Z"/></g>
<g><path style="opacity:0.102" fill="#c1e8cb" d="M 434.5,249.5 C 435.469,246.754 436.136,243.921 436.5,241C 436.646,238.966 435.98,237.299 434.5,236C 426.957,235.519 422.124,239.019 420,246.5C 417.986,254.57 420.819,257.57 428.5,255.5C 427.508,257.026 426.008,257.693 424,257.5C 421.425,257.91 419.758,256.91 419,254.5C 416.55,243.487 420.717,236.82 431.5,234.5C 433.693,234.326 435.527,234.993 437,236.5C 437.667,239.833 437.667,243.167 437,246.5C 436.764,248.119 435.931,249.119 434.5,249.5 Z"/></g>
<g><path style="opacity:0.38" fill="#f7cac6" d="M 283.5,224.5 C 284.947,225.134 285.613,226.301 285.5,228C 282.191,238.476 275.524,245.976 265.5,250.5C 270.735,246.773 275.568,242.44 280,237.5C 283.348,233.642 284.514,229.309 283.5,224.5 Z"/></g>
<g><path style="opacity:0.098" fill="#d0eed8" d="M 81.5,238.5 C 78.6084,242.125 76.9417,246.292 76.5,251C 76.4837,254.515 78.1504,256.349 81.5,256.5C 80.1155,257.801 78.6155,257.801 77,256.5C 75,251.833 75,247.167 77,242.5C 77.8763,240.365 79.3763,239.031 81.5,238.5 Z"/></g>
<g><path style="opacity:0.18" fill="#c8eed3" d="M 333.5,238.5 C 333.008,240.819 332.008,242.819 330.5,244.5C 330.461,241.911 331.461,239.911 333.5,238.5 Z"/></g>
<g><path style="opacity:0.565" fill="#bbe6c6" d="M 360.5,238.5 C 360.539,241.089 359.539,243.089 357.5,244.5C 357.461,241.911 358.461,239.911 360.5,238.5 Z"/></g>
<g><path style="opacity:0.145" fill="#d2f1db" d="M 408.5,241.5 C 407.341,243.25 405.674,244.25 403.5,244.5C 404.659,242.75 406.326,241.75 408.5,241.5 Z"/></g>
<g><path style="opacity:0.2" fill="#caecd3" d="M 458.5,241.5 C 457.341,243.25 455.674,244.25 453.5,244.5C 454.659,242.75 456.326,241.75 458.5,241.5 Z"/></g>
<g><path style="opacity:0.169" fill="#ceeed7" d="M 513.5,241.5 C 512.341,243.25 510.674,244.25 508.5,244.5C 509.659,242.75 511.326,241.75 513.5,241.5 Z"/></g>
<g><path style="opacity:0.522" fill="#b1ddbc" d="M 176.5,241.5 C 176.5,243.5 175.5,244.5 173.5,244.5C 174.167,243.167 175.167,242.167 176.5,241.5 Z"/></g>
<g><path style="opacity:0.392" fill="#b2e2be" d="M 191.5,242.5 C 191.262,244.404 190.262,245.738 188.5,246.5C 188.554,244.368 189.554,243.035 191.5,242.5 Z"/></g>
<g><path style="opacity:0.337" fill="#c3e8cd" d="M 203.5,241.5 C 203.262,243.404 202.262,244.738 200.5,245.5C 200.738,243.596 201.738,242.262 203.5,241.5 Z"/></g>
<g><path style="opacity:0.004" fill="#daf2e1" d="M 37.5,240.5 C 37.2451,242.967 36.2451,244.967 34.5,246.5C 34.461,243.911 35.461,241.911 37.5,240.5 Z"/></g>
<g><path style="opacity:0.31" fill="#c6e9d0" d="M 149.5,239.5 C 146.996,244.515 143.996,249.181 140.5,253.5C 142.489,248.191 145.489,243.524 149.5,239.5 Z"/></g>
<g><path style="opacity:0.243" fill="#bbe3c6" d="M 161.5,243.5 C 159.443,247.067 156.777,250.234 153.5,253C 154.094,253.464 154.761,253.631 155.5,253.5C 154.216,255.614 152.216,256.614 149.5,256.5C 149.281,255.325 149.614,254.325 150.5,253.5C 153.862,249.804 157.528,246.47 161.5,243.5 Z"/></g>
<g><path style="opacity:0.114" fill="#ceead4" d="M 303.5,242.5 C 300.964,248.906 299.964,255.573 300.5,262.5C 299.833,262.5 299.167,262.5 298.5,262.5C 298.784,260.585 298.451,258.919 297.5,257.5C 297.5,257.167 297.5,256.833 297.5,256.5C 298.921,251.564 300.921,246.898 303.5,242.5 Z"/></g>
<g><path style="opacity:0.184" fill="#beeac9" d="M 398.5,228.5 C 400.894,230.332 401.894,232.832 401.5,236C 401.589,238.713 400.922,241.213 399.5,243.5C 400.689,244.429 402.022,244.762 403.5,244.5C 402.081,245.451 400.415,245.784 398.5,245.5C 399.716,239.812 399.716,234.145 398.5,228.5 Z"/></g>
<g><path style="opacity:0.094" fill="#bee5c8" d="M 493.5,225.5 C 501.623,222.779 505.123,225.779 504,234.5C 499.962,241.544 494.796,247.711 488.5,253C 494.746,251.296 500.746,248.796 506.5,245.5C 500.506,250.168 493.84,253.835 486.5,256.5C 486.167,256 485.833,255.5 485.5,255C 490.654,249.178 495.82,243.345 501,237.5C 502.483,234.298 502.817,230.964 502,227.5C 501.617,226.944 501.117,226.611 500.5,226.5C 498.393,225.532 496.059,225.198 493.5,225.5 Z"/></g>
<g><path style="opacity:0.361" fill="#c4e9ce" d="M 253.5,256.5 C 252.508,256.328 251.842,256.662 251.5,257.5C 250.833,257.5 250.5,257.833 250.5,258.5C 249.833,258.5 249.5,258.833 249.5,259.5C 245.966,261.766 242.3,263.766 238.5,265.5C 245.065,260.779 251.231,255.446 257,249.5C 257.494,247.866 257.66,246.199 257.5,244.5C 254.921,244.394 252.588,245.061 250.5,246.5C 253.715,241.062 256.715,241.228 259.5,247C 257.846,250.496 255.846,253.663 253.5,256.5 Z"/></g>
<g><path style="opacity:0.69" fill="#b3e0bd" d="M 25.5,236.5 C 22.5711,244.362 19.0711,252.029 15,259.5C 13.9207,262.063 13.4207,264.729 13.5,267.5C 12.4047,264.283 12.5713,260.95 14,257.5C 17.3536,250.117 21.1869,243.117 25.5,236.5 Z"/></g>
<g><path style="opacity:0.369" fill="#c1e8cb" d="M 93.5,244.5 C 93.2624,246.404 92.2624,247.738 90.5,248.5C 90.7376,246.596 91.7376,245.262 93.5,244.5 Z"/></g>
<g><path style="opacity:0.369" fill="#c8ead1" d="M 173.5,244.5 C 171.819,246.008 169.819,247.008 167.5,247.5C 168.911,245.461 170.911,244.461 173.5,244.5 Z"/></g>
<g><path style="opacity:0.329" fill="#d1ebd7" d="M 200.5,245.5 C 200.573,247.027 199.906,248.027 198.5,248.5C 198.427,246.973 199.094,245.973 200.5,245.5 Z"/></g>
<g><path style="opacity:0.227" fill="#c6ead0" d="M 318.5,241.5 C 315.847,246.127 314.18,251.127 313.5,256.5C 312.125,250.624 313.792,245.624 318.5,241.5 Z"/></g>
<g><path style="opacity:0.443" fill="#b3e1bf" d="M 330.5,244.5 C 330.262,246.404 329.262,247.738 327.5,248.5C 327.738,246.596 328.738,245.262 330.5,244.5 Z"/></g>
<g><path style="opacity:0.071" fill="#d3e9da" d="M 517.5,241.5 C 520.167,243.5 520.167,245.5 517.5,247.5C 517.5,245.5 517.5,243.5 517.5,241.5 Z"/></g>
<g><path style="opacity:0.722" fill="#a0d5ac" d="M 250.5,246.5 C 250.19,248.144 249.19,249.144 247.5,249.5C 247.81,247.856 248.81,246.856 250.5,246.5 Z"/></g>
<g><path style="opacity:0.341" fill="#c4e8ce" d="M 167.5,247.5 C 165.97,249.346 163.97,250.346 161.5,250.5C 163.03,248.654 165.03,247.654 167.5,247.5 Z"/></g>
<g><path style="opacity:0.149" fill="#c1e7cb" d="M 188.5,246.5 C 185.957,252.269 182.957,257.602 179.5,262.5C 180.951,256.262 183.951,250.929 188.5,246.5 Z"/></g>
<g><path style="opacity:0.286" fill="#cbebd4" d="M 357.5,244.5 C 357.975,247.313 356.975,249.313 354.5,250.5C 355.508,248.456 356.508,246.456 357.5,244.5 Z"/></g>
<g><path style="opacity:0.137" fill="#c8ebd1" d="M 220.5,250.5 C 222.024,246.798 224.19,243.464 227,240.5C 228.009,238.975 228.509,237.308 228.5,235.5C 223.078,236.466 218.578,239.133 215,243.5C 211.796,248.597 208.629,253.597 205.5,258.5C 207.993,250.037 212.66,242.87 219.5,237C 222.536,234.994 225.869,234.16 229.5,234.5C 229.702,236.989 229.202,239.323 228,241.5C 225.636,244.69 223.136,247.69 220.5,250.5 Z"/></g>
<g><path style="opacity:0.286" fill="#c2e6cc" d="M 479.5,247.5 C 479.573,249.027 478.906,250.027 477.5,250.5C 477.427,248.973 478.094,247.973 479.5,247.5 Z"/></g>
<g><path style="opacity:0.024" fill="#e6f8eb" d="M 517.5,247.5 C 517.167,249.833 515.833,251.167 513.5,251.5C 514.5,249.833 515.833,248.5 517.5,247.5 Z"/></g>
<g><path style="opacity:0.008" fill="#d5f2dd" d="M 34.5,246.5 C 33.917,249.947 32.5837,252.947 30.5,255.5C 30.3433,254.127 30.51,252.793 31,251.5C 31.9022,249.569 33.0688,247.903 34.5,246.5 Z"/></g>
<g><path style="opacity:0.522" fill="#afddbb" d="M 90.5,248.5 C 88.7338,252.602 85.7338,255.269 81.5,256.5C 84.4744,253.862 87.4744,251.195 90.5,248.5 Z"/></g>
<g><path style="opacity:0.176" fill="#cfedd7" d="M 198.5,248.5 C 198.155,251.198 196.822,253.198 194.5,254.5C 195.34,252.147 196.674,250.147 198.5,248.5 Z"/></g>
<g><path style="opacity:0.349" fill="#f7c5c1" d="M 265.5,250.5 C 264.267,252.796 262.267,254.13 259.5,254.5C 261.147,252.674 263.147,251.34 265.5,250.5 Z"/></g>
<g><path style="opacity:0.467" fill="#addfba" d="M 327.5,248.5 C 326.062,252.274 323.395,254.607 319.5,255.5C 322.141,253.196 324.808,250.862 327.5,248.5 Z"/></g>
<g><path style="opacity:0.529" fill="#a7dfb5" d="M 354.5,250.5 C 354.027,251.906 353.027,252.573 351.5,252.5C 351.973,251.094 352.973,250.427 354.5,250.5 Z"/></g>
<g><path style="opacity:0.071" fill="#c3eacd" d="M 149.5,239.5 C 149.414,238.504 149.748,237.671 150.5,237C 146.707,236.978 143.541,238.478 141,241.5C 137.009,249.843 132.842,258.01 128.5,266C 126.29,267.739 123.79,268.906 121,269.5C 117.932,268.713 116.266,266.713 116,263.5C 113.843,265.495 111.343,266.828 108.5,267.5C 111.171,264.968 114.171,262.634 117.5,260.5C 118.474,262.743 118.808,265.076 118.5,267.5C 123.513,267.744 127.346,265.744 130,261.5C 132.806,254.75 135.806,248.083 139,241.5C 141.959,236.937 146.126,234.937 151.5,235.5C 151.771,237.38 151.104,238.713 149.5,239.5 Z"/></g>
<g><path style="opacity:0.267" fill="#c1e3ca" d="M 161.5,250.5 C 160.089,252.539 158.089,253.539 155.5,253.5C 157.033,251.755 159.033,250.755 161.5,250.5 Z"/></g>
<g><path style="opacity:0.149" fill="#ccecd6" d="M 220.5,250.5 C 220.34,252.153 219.674,253.486 218.5,254.5C 218.229,252.62 218.896,251.287 220.5,250.5 Z"/></g>
<g><path style="opacity:0.29" fill="#c9e8d1" d="M 247.5,249.5 C 246.198,251.822 244.198,253.155 241.5,253.5C 243.147,251.674 245.147,250.34 247.5,249.5 Z"/></g>
<g><path style="opacity:0.129" fill="#f8cdca" d="M 295.5,236.5 C 293.541,240.981 290.541,244.815 286.5,248C 283.167,250.333 279.833,252.667 276.5,255C 280.751,256.195 285.085,256.695 289.5,256.5C 289.5,256.833 289.5,257.167 289.5,257.5C 284.473,257.497 279.473,257.164 274.5,256.5C 274.281,255.325 274.614,254.325 275.5,253.5C 283.457,249.199 290.123,243.532 295.5,236.5 Z"/></g>
<g><path style="opacity:0.239" fill="#ceedd7" d="M 434.5,249.5 C 434.262,251.404 433.262,252.738 431.5,253.5C 431.738,251.596 432.738,250.262 434.5,249.5 Z"/></g>
<g><path style="opacity:0.51" fill="#b2e2bf" d="M 351.5,252.5 C 351.027,253.906 350.027,254.573 348.5,254.5C 348.973,253.094 349.973,252.427 351.5,252.5 Z"/></g>
<g><path style="opacity:0.137" fill="#b8e5c3" d="M 460.5,267.5 C 458.123,270.124 455.623,270.124 453,267.5C 452.118,263.469 452.951,259.802 455.5,256.5C 455.167,256.167 454.833,255.833 454.5,255.5C 450.866,256.511 447.199,256.511 443.5,255.5C 443.47,254.503 443.97,253.836 445,253.5C 449.577,255.204 453.744,254.537 457.5,251.5C 457.833,252 458.167,252.5 458.5,253C 457.226,257.044 455.559,260.877 453.5,264.5C 453.608,265.442 453.941,266.275 454.5,267C 456.473,267.495 458.473,267.662 460.5,267.5 Z"/></g>
<g><path style="opacity:0.388" fill="#b4dfbf" d="M 241.5,253.5 C 240.7,255.741 239.034,256.741 236.5,256.5C 237.899,255.11 239.566,254.11 241.5,253.5 Z"/></g>
<g><path style="opacity:0.031" fill="#e1f4e6" d="M 341.5,250.5 C 341.167,252.5 340.833,254.5 340.5,256.5C 341.5,256.5 342.5,256.5 343.5,256.5C 342.432,257.434 341.099,257.768 339.5,257.5C 338.99,254.612 339.656,252.279 341.5,250.5 Z"/></g>
<g><path style="opacity:0.31" fill="#c6e9d0" d="M 381.5,253.5 C 380.599,255.727 378.933,256.727 376.5,256.5C 377.899,255.11 379.566,254.11 381.5,253.5 Z"/></g>
<g><path style="opacity:0.388" fill="#bfebcb" d="M 431.5,253.5 C 431.027,254.906 430.027,255.573 428.5,255.5C 428.973,254.094 429.973,253.427 431.5,253.5 Z"/></g>
<g><path style="opacity:0.235" fill="#cce6d3" d="M 348.5,254.5 C 347.713,256.104 346.38,256.771 344.5,256.5C 345.514,255.326 346.847,254.66 348.5,254.5 Z"/></g>
<g><path style="opacity:0.192" fill="#c1e6cb" d="M 477.5,250.5 C 472.244,262.543 475.911,267.377 488.5,265C 496.537,259.981 504.87,255.481 513.5,251.5C 504.475,259.181 494.141,264.514 482.5,267.5C 475.358,267.19 472.525,263.523 474,256.5C 474.716,254.121 475.883,252.121 477.5,250.5 Z"/></g>
<g><path style="opacity:0.855" fill="#faa49c" d="M 297.5,256.5 C 297.5,256.833 297.5,257.167 297.5,257.5C 294.833,257.5 292.167,257.5 289.5,257.5C 289.5,257.167 289.5,256.833 289.5,256.5C 292.272,255.233 294.939,255.233 297.5,256.5 Z"/></g>
<g><path style="opacity:0.322" fill="#b9ebc6" d="M 319.5,255.5 C 317.68,257.461 315.68,257.794 313.5,256.5C 315.5,256.167 317.5,255.833 319.5,255.5 Z"/></g>
<g><path style="opacity:0.275" fill="#b5eac2" d="M 369.5,254.5 C 371.591,255.865 373.924,256.532 376.5,256.5C 374.712,257.622 372.712,257.789 370.5,257C 369.748,256.329 369.414,255.496 369.5,254.5 Z"/></g>
<g><path style="opacity:0.241" fill="#cbefd4" d="M 218.5,254.5 C 217.664,259.594 218.998,263.927 222.5,267.5C 220.248,267.084 218.748,265.751 218,263.5C 217.195,260.304 217.362,257.304 218.5,254.5 Z"/></g>
<g><path style="opacity:0.129" fill="#b6e3c1" d="M 407.5,262.5 C 405.306,260.779 404.139,258.445 404,255.5C 400.898,256.222 397.732,256.389 394.5,256C 393.295,257.376 391.962,258.542 390.5,259.5C 391.399,257.094 392.899,255.094 395,253.5C 398.828,254.692 402.662,254.692 406.5,253.5C 406.368,256.57 406.701,259.57 407.5,262.5 Z"/></g>
<g><path style="opacity:0.071" fill="#d7f0de" d="M 443.5,255.5 C 443.262,257.404 442.262,258.738 440.5,259.5C 440.738,257.596 441.738,256.262 443.5,255.5 Z"/></g>
<g><path style="opacity:0.157" fill="#bfe6c8" d="M 140.5,253.5 C 137.984,263.815 141.984,267.649 152.5,265C 158.167,261.833 163.833,258.667 169.5,255.5C 169.619,259.048 169.785,262.715 170,266.5C 172.041,267.423 174.208,267.756 176.5,267.5C 174.123,270.124 171.623,270.124 169,267.5C 167.341,264.57 167.008,261.57 168,258.5C 160.799,264.344 152.632,267.177 143.5,267C 138.776,264.565 137.276,260.731 139,255.5C 139.278,254.584 139.778,253.918 140.5,253.5 Z"/></g>
<g><path style="opacity:0.286" fill="#f4cfcc" d="M 259.5,254.5 C 257.125,257.025 254.291,259.025 251,260.5C 250.506,262.134 250.34,263.801 250.5,265.5C 249.539,263.735 249.205,261.735 249.5,259.5C 250.167,259.5 250.5,259.167 250.5,258.5C 251.167,258.5 251.5,258.167 251.5,257.5C 252.492,257.672 253.158,257.338 253.5,256.5C 255.315,255.37 257.315,254.704 259.5,254.5 Z"/></g>
<g><path style="opacity:0.224" fill="#d0e8d7" d="M 205.5,258.5 C 205.771,260.38 205.104,261.713 203.5,262.5C 203.229,260.62 203.896,259.287 205.5,258.5 Z"/></g>
<g><path style="opacity:0.376" fill="#b9e3c4" d="M 63.5,259.5 C 65.2503,260.659 66.2503,262.326 66.5,264.5C 64.2729,263.599 63.2729,261.933 63.5,259.5 Z"/></g>
<g><path style="opacity:0.376" fill="#cdefd6" d="M 194.5,254.5 C 193.842,257.156 193.175,259.822 192.5,262.5C 192.833,266.989 195.167,268.489 199.5,267C 200.579,265.141 201.912,263.641 203.5,262.5C 201.854,268.825 198.187,270.492 192.5,267.5C 190.407,262.84 191.074,258.506 194.5,254.5 Z"/></g>
<g><path style="opacity:0.027" fill="#f7ccc8" d="M 269.5,264.5 C 267.545,263.677 265.545,263.51 263.5,264C 260.774,266.03 257.774,267.53 254.5,268.5C 252.583,268.246 251.249,267.246 250.5,265.5C 252.455,266.323 254.455,266.49 256.5,266C 259.469,264.516 262.469,263.016 265.5,261.5C 267.261,262.035 268.594,263.035 269.5,264.5 Z"/></g>
<g><path style="opacity:0.098" fill="#c4e9ce" d="M 90.5,260.5 C 89.135,262.86 87.135,264.527 84.5,265.5C 85.865,263.14 87.865,261.473 90.5,260.5 Z"/></g>
<g><path style="opacity:0.055" fill="#d4f0dc" d="M 96.5,264.5 C 94.8828,262.879 93.7162,260.879 93,258.5C 92.5831,259.756 91.7498,260.423 90.5,260.5C 91.0553,258.271 92.3886,256.605 94.5,255.5C 95.3525,258.478 96.0192,261.478 96.5,264.5 Z"/></g>
<g><path style="opacity:0.035" fill="#d6f2df" d="M 357.5,262.5 C 358.833,263.167 359.833,264.167 360.5,265.5C 358.5,265.5 357.5,264.5 357.5,262.5 Z"/></g>
<g><path style="opacity:0.341" fill="#b6e4c2" d="M 179.5,262.5 C 179.727,264.933 178.727,266.599 176.5,267.5C 176.75,265.326 177.75,263.659 179.5,262.5 Z"/></g>
<g><path style="opacity:0.388" fill="#bae2c4" d="M 66.5,264.5 C 68.4044,264.738 69.7377,265.738 70.5,267.5C 68.5956,267.262 67.2623,266.262 66.5,264.5 Z"/></g>
<g><path style="opacity:0.024" fill="#d6f0de" d="M 96.5,264.5 C 97.8333,265.167 98.8333,266.167 99.5,267.5C 97.5,267.5 96.5,266.5 96.5,264.5 Z"/></g>
<g><path style="opacity:0.231" fill="#d1f0d9" d="M 440.5,259.5 C 432.158,268.536 422.158,271.036 410.5,267C 408.859,265.871 407.859,264.371 407.5,262.5C 412.523,267.274 418.523,268.774 425.5,267C 430.801,265.016 435.801,262.516 440.5,259.5 Z"/></g>
<g><path style="opacity:0.043" fill="#dbf2e1" d="M 466.5,261.5 C 465.5,264.5 463.5,266.5 460.5,267.5C 462.167,265.167 464.167,263.167 466.5,261.5 Z"/></g>
<g><path style="opacity:0.016" fill="#daefe0" d="M 84.5,265.5 C 84.0269,266.906 83.0269,267.573 81.5,267.5C 81.8212,265.952 82.8212,265.285 84.5,265.5 Z"/></g>
<g><path style="opacity:0.247" fill="#c1e6cb" d="M 360.5,265.5 C 362.027,265.427 363.027,266.094 363.5,267.5C 361.973,267.573 360.973,266.906 360.5,265.5 Z"/></g>
<g><path style="opacity:0.445" fill="#c8f0d2" d="M 70.5,267.5 C 74.1667,267.5 77.8333,267.5 81.5,267.5C 77.8333,270.167 74.1667,270.167 70.5,267.5 Z"/></g>
<g><path style="opacity:0.439" fill="#c8f0d1" d="M 99.5,267.5 C 102.5,267.5 105.5,267.5 108.5,267.5C 105.461,270.017 102.461,270.017 99.5,267.5 Z"/></g>
<g><path style="opacity:0.027" fill="#cff0d7" d="M 238.5,265.5 C 233.47,269.435 228.137,270.102 222.5,267.5C 227.97,267.754 233.304,267.087 238.5,265.5 Z"/></g>
<g><path style="opacity:0.369" fill="#f8c4bf" d="M 297.5,257.5 C 298.451,258.919 298.784,260.585 298.5,262.5C 297.327,264.504 295.66,266.004 293.5,267C 285.035,270.198 277.035,269.365 269.5,264.5C 272.947,264.814 276.28,265.648 279.5,267C 282.833,267.667 286.167,267.667 289.5,267C 294.956,266.053 297.623,262.886 297.5,257.5 Z"/></g>
<g><path style="opacity:0.434" fill="#c0e9ca" d="M 330.5,265.5 C 329.115,264.426 327.949,263.093 327,261.5C 319.933,268.644 311.766,270.477 302.5,267C 301.418,265.67 300.751,264.17 300.5,262.5C 301.972,264.134 303.638,265.634 305.5,267C 314.517,267.828 322.183,264.994 328.5,258.5C 329.421,260.777 330.087,263.11 330.5,265.5 Z"/></g>
<g><path style="opacity:0.361" fill="#c4eacd" d="M 357.5,262.5 C 356.85,262.196 356.183,261.863 355.5,261.5C 350.362,265.652 344.528,268.319 338,269.5C 335.739,269.135 333.573,268.469 331.5,267.5C 330.702,267.043 330.369,266.376 330.5,265.5C 332.103,265.312 333.437,265.812 334.5,267C 337.5,267.667 340.5,267.667 343.5,267C 348.102,264.196 352.768,261.696 357.5,259.5C 357.5,260.5 357.5,261.5 357.5,262.5 Z"/></g>
<g><path style="opacity:0.441" fill="#c7eed1" d="M 390.5,259.5 C 385.008,265.744 378.008,269.078 369.5,269.5C 367.201,269.401 365.201,268.734 363.5,267.5C 367.514,267.666 371.514,267.499 375.5,267C 380.801,265.016 385.801,262.516 390.5,259.5 Z"/></g>
<g><path style="opacity:0.157" fill="#c9e8d1" d="M 30.5,255.5 C 28.1653,261.838 24.1653,266.838 18.5,270.5C 16.4024,270.043 14.7358,269.043 13.5,267.5C 15.7819,268.39 18.1152,268.556 20.5,268C 23.7325,263.672 27.0658,259.506 30.5,255.5 Z"/></g>
</svg>
